<?xml version="1.0" encoding="UTF-8" standalone="no"?>
<svg
   width="50"
   height="50"
   viewBox="0 0 50 50"
   fill="none"
   version="1.1"
   id="svg391"
   sodipodi:docname="sports_esports_black_24dp 1.svg"
   inkscape:version="1.2.1 (9c6d41e4, 2022-07-14)"
   xmlns:inkscape="http://www.inkscape.org/namespaces/inkscape"
   xmlns:sodipodi="http://sodipodi.sourceforge.net/DTD/sodipodi-0.dtd"
   xmlns="http://www.w3.org/2000/svg"
   xmlns:svg="http://www.w3.org/2000/svg">
  <sodipodi:namedview
     id="namedview393"
     pagecolor="#ffffff"
     bordercolor="#000000"
     borderopacity="0.25"
     inkscape:showpageshadow="2"
     inkscape:pageopacity="0.0"
     inkscape:pagecheckerboard="0"
     inkscape:deskcolor="#d1d1d1"
     showgrid="false"
     inkscape:zoom="4.72"
     inkscape:cx="-13.665254"
     inkscape:cy="25"
     inkscape:window-width="1280"
     inkscape:window-height="456"
     inkscape:window-x="0"
     inkscape:window-y="25"
     inkscape:window-maximized="0"
     inkscape:current-layer="svg391" />
  <g
     id="sports_esports_black_24dp 1"
     clip-path="url(#clip0_201_534)">
    <g
       id="Group">
      <g
         id="Group_2">
        <path
           id="Vector"
           d="M44.9555 33.5208L42.6847 17.5625C42.1014 13.4583 38.5808 10.4166 34.4352 10.4166H15.5613C11.4157 10.4166 7.89505 13.4583 7.31175 17.5625L5.04105 33.5208C4.58274 36.7291 7.06177 39.5833 10.2907 39.5833C11.7073 39.5833 13.0406 39.0208 14.0405 38.0208L18.7486 33.3333H31.2479L35.9351 38.0208C36.9351 39.0208 38.2892 39.5833 39.6849 39.5833C42.9347 39.5833 45.4138 36.7291 44.9555 33.5208ZM22.915 22.9166H18.7486V27.0833H16.6654V22.9166H12.499V20.8333H16.6654V16.6666H18.7486V20.8333H22.915V22.9166ZM31.2479 20.8333C30.1021 20.8333 29.1647 19.8958 29.1647 18.75C29.1647 17.6041 30.1021 16.6666 31.2479 16.6666C32.3937 16.6666 33.3311 17.6041 33.3311 18.75C33.3311 19.8958 32.3937 20.8333 31.2479 20.8333ZM35.4143 27.0833C34.2686 27.0833 33.3311 26.1458 33.3311 25C33.3311 23.8541 34.2686 22.9166 35.4143 22.9166C36.5601 22.9166 37.4975 23.8541 37.4975 25C37.4975 26.1458 36.5601 27.0833 35.4143 27.0833Z"
           fill="#2A7AE4" />
      </g>
    </g>
  </g>
  <defs
     id="defs389">
    <clipPath
       id="clip0_201_534">
      <rect
         width="49.9972"
         height="50"
         fill="white"
         id="rect386" />
    </clipPath>
  </defs>
</svg>
