<?xml version="1.0" encoding="UTF-8" standalone="no"?>
<svg
   width="127"
   height="20"
   viewBox="0 0 127 20"
   fill="none"
   version="1.1"
   id="svg558"
   sodipodi:docname="Texto (1).svg"
   inkscape:version="1.2.1 (9c6d41e4, 2022-07-14)"
   xmlns:inkscape="http://www.inkscape.org/namespaces/inkscape"
   xmlns:sodipodi="http://sodipodi.sourceforge.net/DTD/sodipodi-0.dtd"
   xmlns="http://www.w3.org/2000/svg"
   xmlns:svg="http://www.w3.org/2000/svg">
  <defs
     id="defs562" />
  <sodipodi:namedview
     id="namedview560"
     pagecolor="#ffffff"
     bordercolor="#000000"
     borderopacity="0.25"
     inkscape:showpageshadow="2"
     inkscape:pageopacity="0.0"
     inkscape:pagecheckerboard="0"
     inkscape:deskcolor="#d1d1d1"
     showgrid="false"
     inkscape:zoom="9.2913386"
     inkscape:cx="43.858051"
     inkscape:cy="10.009322"
     inkscape:window-width="1280"
     inkscape:window-height="456"
     inkscape:window-x="0"
     inkscape:window-y="25"
     inkscape:window-maximized="0"
     inkscape:current-layer="svg558" />
  <g
     id="Texto">
    <g
       id="AluraGeek">
      <path
         d="M79.0803 17C77.6637 18.4167 76.0138 19.125 74.1306 19.125C72.964 19.125 71.864 18.8917 70.8308 18.425C69.8142 17.9583 68.9225 17.3167 68.1559 16.5C67.406 15.6833 66.806 14.725 66.356 13.625C65.9227 12.5083 65.7061 11.3083 65.7061 10.025C65.7061 8.80834 65.9227 7.66667 66.356 6.6C66.806 5.51667 67.4143 4.575 68.1809 3.775C68.9642 2.95833 69.8808 2.31667 70.9308 1.85C71.9807 1.36667 73.1223 1.125 74.3556 1.125C76.0221 1.125 77.4471 1.475 78.6303 2.175C79.8303 2.875 80.7302 3.81667 81.3302 5L78.7553 6.9C78.3053 6.01667 77.672 5.34167 76.8554 4.875C76.0555 4.40833 75.1805 4.175 74.2306 4.175C73.4806 4.175 72.789 4.33333 72.1557 4.65C71.5391 4.96667 71.0058 5.4 70.5558 5.95C70.1225 6.5 69.7808 7.13333 69.5308 7.85C69.2975 8.56667 69.1809 9.325 69.1809 10.125C69.1809 10.9583 69.3142 11.7417 69.5808 12.475C69.8475 13.1917 70.2141 13.8167 70.6808 14.35C71.1474 14.8833 71.6974 15.3083 72.3307 15.625C72.9806 15.925 73.6806 16.075 74.4306 16.075C76.1471 16.075 77.697 15.2667 79.0803 13.65V12.4H75.5055V9.875H81.9301V19H79.0803V17Z"
         fill="#464646"
         id="path537" />
      <path
         d="M90.6199 19.25C89.5699 19.25 88.62 19.075 87.77 18.725C86.9201 18.3583 86.1951 17.8667 85.5952 17.25C84.9952 16.6333 84.5286 15.9167 84.1952 15.1C83.8786 14.2833 83.7203 13.425 83.7203 12.525C83.7203 11.5917 83.8786 10.7167 84.1952 9.9C84.5119 9.06667 84.9702 8.34167 85.5702 7.725C86.1701 7.09167 86.8951 6.59167 87.7451 6.225C88.6117 5.85833 89.5783 5.675 90.6449 5.675C91.7115 5.675 92.6614 5.85833 93.4947 6.225C94.3447 6.59167 95.0613 7.08333 95.6446 7.7C96.2446 8.31667 96.6945 9.03333 96.9945 9.85C97.3112 10.6667 97.4695 11.5167 97.4695 12.4C97.4695 12.6167 97.4612 12.825 97.4445 13.025C97.4445 13.225 97.4278 13.3917 97.3945 13.525H87.2701C87.3201 14.0417 87.4451 14.5 87.6451 14.9C87.845 15.3 88.1034 15.6417 88.42 15.925C88.7367 16.2083 89.095 16.425 89.495 16.575C89.8949 16.725 90.3116 16.8 90.7449 16.8C91.4115 16.8 92.0365 16.6417 92.6198 16.325C93.2197 15.9917 93.6281 15.5583 93.8447 15.025L96.7195 15.825C96.2362 16.825 95.4613 17.65 94.3947 18.3C93.3447 18.9333 92.0865 19.25 90.6199 19.25ZM94.0197 11.35C93.9364 10.3667 93.5697 9.58334 92.9198 9C92.2865 8.4 91.5115 8.1 90.5949 8.1C90.1449 8.1 89.7199 8.18334 89.32 8.35C88.9367 8.5 88.595 8.71667 88.295 9C87.995 9.28334 87.745 9.625 87.5451 10.025C87.3617 10.425 87.2534 10.8667 87.2201 11.35H94.0197Z"
         fill="#464646"
         id="path539" />
      <path
         d="M105.585 19.25C104.535 19.25 103.585 19.075 102.735 18.725C101.885 18.3583 101.16 17.8667 100.56 17.25C99.9602 16.6333 99.4935 15.9167 99.1602 15.1C98.8436 14.2833 98.6853 13.425 98.6853 12.525C98.6853 11.5917 98.8436 10.7167 99.1602 9.9C99.4769 9.06667 99.9352 8.34167 100.535 7.725C101.135 7.09167 101.86 6.59167 102.71 6.225C103.577 5.85833 104.543 5.675 105.61 5.675C106.676 5.675 107.626 5.85833 108.46 6.225C109.31 6.59167 110.026 7.08333 110.61 7.7C111.21 8.31667 111.66 9.03333 111.96 9.85C112.276 10.6667 112.434 11.5167 112.434 12.4C112.434 12.6167 112.426 12.825 112.409 13.025C112.409 13.225 112.393 13.3917 112.359 13.525H102.235C102.285 14.0417 102.41 14.5 102.61 14.9C102.81 15.3 103.068 15.6417 103.385 15.925C103.702 16.2083 104.06 16.425 104.46 16.575C104.86 16.725 105.277 16.8 105.71 16.8C106.376 16.8 107.001 16.6417 107.585 16.325C108.185 15.9917 108.593 15.5583 108.81 15.025L111.685 15.825C111.201 16.825 110.426 17.65 109.36 18.3C108.31 18.9333 107.051 19.25 105.585 19.25ZM108.985 11.35C108.901 10.3667 108.535 9.58334 107.885 9C107.251 8.4 106.476 8.1 105.56 8.1C105.11 8.1 104.685 8.18334 104.285 8.35C103.902 8.5 103.56 8.71667 103.26 9C102.96 9.28334 102.71 9.625 102.51 10.025C102.327 10.425 102.218 10.8667 102.185 11.35H108.985Z"
         fill="#464646"
         id="path541" />
      <path
         d="M123.425 19L119.625 13.325L117.825 15.1V19H114.475V0.75H117.825V11.825L123.075 5.925H126.649L121.775 11.475L126.999 19H123.425Z"
         fill="#464646"
         id="path543" />
    </g>
    <g
       id="AluraGeek_2">
      <path
         d="M7.77169 1.25H10.8215L17.5711 19H14.0213L12.3714 14.575H6.17178L4.54687 19H0.99707L7.77169 1.25ZM11.7465 12.15L9.2966 5.175L6.74675 12.15H11.7465Z"
         fill="#2A7AE4"
         id="path546" />
      <path
         d="M19.1679 0.75H22.5177V14.8C22.5177 15.2833 22.6344 15.6583 22.8677 15.925C23.101 16.1917 23.4343 16.325 23.8677 16.325C24.0676 16.325 24.2843 16.2917 24.5176 16.225C24.7676 16.1583 25.0009 16.075 25.2176 15.975L25.6676 18.525C25.2176 18.7417 24.6926 18.9083 24.0926 19.025C23.4927 19.1417 22.951 19.2 22.4677 19.2C21.4178 19.2 20.6012 18.925 20.0179 18.375C19.4512 17.8083 19.1679 17.0083 19.1679 15.975V0.75Z"
         fill="#2A7AE4"
         id="path548" />
      <path
         d="M31.1268 19.25C29.7769 19.25 28.7519 18.8167 28.052 17.95C27.352 17.0833 27.002 15.8 27.002 14.1V5.9H30.3519V13.375C30.3519 15.3917 31.0768 16.4 32.5267 16.4C33.1767 16.4 33.8017 16.2083 34.4016 15.825C35.0183 15.425 35.5182 14.825 35.9015 14.025V5.9H39.2514V15.15C39.2514 15.5 39.3097 15.75 39.4263 15.9C39.5597 16.05 39.768 16.1333 40.0513 16.15V19C39.718 19.0667 39.4347 19.1083 39.2014 19.125C38.9847 19.1417 38.7847 19.15 38.6014 19.15C38.0014 19.15 37.5098 19.0167 37.1265 18.75C36.7598 18.4667 36.5432 18.0833 36.4765 17.6L36.4015 16.55C35.8182 17.45 35.0683 18.125 34.1516 18.575C33.235 19.025 32.2268 19.25 31.1268 19.25Z"
         fill="#2A7AE4"
         id="path550" />
      <path
         d="M50.3798 8.8C49.3632 8.81667 48.4549 9.01667 47.655 9.4C46.855 9.76667 46.2801 10.325 45.9301 11.075V19H42.5803V5.9H45.6551V8.7C45.8884 8.25 46.1634 7.85 46.48 7.5C46.7967 7.13333 47.1383 6.81667 47.505 6.55C47.8716 6.28333 48.2383 6.08333 48.6049 5.95C48.9882 5.8 49.3549 5.725 49.7049 5.725C49.8882 5.725 50.0215 5.725 50.1048 5.725C50.2048 5.725 50.2965 5.73333 50.3798 5.75V8.8Z"
         fill="#2A7AE4"
         id="path552" />
      <path
         d="M55.6516 19.25C55.0183 19.25 54.4267 19.15 53.8767 18.95C53.3267 18.7333 52.8518 18.4417 52.4518 18.075C52.0518 17.6917 51.7352 17.25 51.5018 16.75C51.2852 16.25 51.1769 15.7 51.1769 15.1C51.1769 14.4833 51.3102 13.9167 51.5768 13.4C51.8601 12.8667 52.2435 12.4167 52.7268 12.05C53.2267 11.6833 53.8184 11.4 54.5017 11.2C55.185 10.9833 55.9349 10.875 56.7515 10.875C57.3348 10.875 57.9015 10.925 58.4514 11.025C59.0181 11.125 59.518 11.2667 59.9514 11.45V10.7C59.9514 9.83334 59.7014 9.16667 59.2014 8.7C58.7181 8.23333 57.9931 8 57.0265 8C56.3266 8 55.6433 8.125 54.9766 8.375C54.31 8.625 53.6267 8.99167 52.9268 9.475L51.9018 7.35C53.585 6.23333 55.4016 5.675 57.3515 5.675C59.2347 5.675 60.693 6.14167 61.7263 7.075C62.7762 7.99167 63.3012 9.325 63.3012 11.075V15.15C63.3012 15.5 63.3595 15.75 63.4762 15.9C63.6095 16.05 63.8178 16.1333 64.1011 16.15V19C63.5345 19.1167 63.0429 19.175 62.6262 19.175C61.9929 19.175 61.5013 19.0333 61.1513 18.75C60.818 18.4667 60.6096 18.0917 60.5263 17.625L60.4513 16.9C59.868 17.6667 59.1597 18.25 58.3265 18.65C57.4932 19.05 56.6015 19.25 55.6516 19.25ZM56.6015 16.8C57.1682 16.8 57.7015 16.7 58.2015 16.5C58.7181 16.3 59.1181 16.0333 59.4014 15.7C59.768 15.4167 59.9514 15.1 59.9514 14.75V13.25C59.5514 13.1 59.1181 12.9833 58.6514 12.9C58.1848 12.8 57.7348 12.75 57.3015 12.75C56.4349 12.75 55.7266 12.95 55.1766 13.35C54.6267 13.7333 54.3517 14.225 54.3517 14.825C54.3517 15.3917 54.5683 15.8667 55.0016 16.25C55.4349 16.6167 55.9683 16.8 56.6015 16.8Z"
         fill="#2A7AE4"
         id="path554" />
    </g>
  </g>
</svg>
